<svg width="85" height="80" viewBox="0 0 85 80" fill="none" xmlns="http://www.w3.org/2000/svg">
<g id="adobbe-logo 1">
<path id="Vector" d="M33.6155 62.8536C34.2703 64.7586 34.0077 66.4 32.5696 67.693C31.1178 68.9982 29.4751 68.9937 27.8344 68.0946C22.4343 65.1352 17.0355 62.173 11.6631 59.1611C9.80935 58.1218 8.93643 55.7668 9.43116 53.576C9.9003 51.4986 11.7537 49.8795 13.8313 49.6991C20.8373 49.0908 27.8413 48.4564 34.8494 47.8746C36.1055 47.7703 36.8513 47.3281 37.3514 46.0233C38.8086 42.221 40.4176 38.4791 42.0189 34.7368C42.3869 33.8769 42.4006 33.1979 41.797 32.4591C41.2539 31.7943 40.8031 31.0487 40.3274 30.3278C40.0543 29.9139 39.7361 29.4009 40.2683 29.0356C40.7819 28.6829 41.1462 29.1566 41.4457 29.5537C41.9619 30.2382 42.4693 30.9297 42.9853 31.6248C45.0034 29.5587 44.0796 25.6427 41.3104 24.2988C40.2477 23.783 39.0932 23.7839 37.9564 23.7259C36.3383 23.6432 34.7147 23.7806 33.0994 23.5071C31.4838 23.2335 30.4196 22.3243 29.8868 20.7634C29.3164 19.0927 29.6668 17.6229 30.953 16.4376C32.2805 15.2143 33.8957 14.4279 35.3935 13.4665C39.2084 11.018 43.0426 8.60123 46.8765 6.18427C48.8859 4.9175 51.2621 5.00706 52.865 6.37813C54.7111 7.95735 55.2891 10.2456 54.2257 12.6346C51.3754 19.0383 48.5005 25.432 45.5101 31.7673C44.7779 33.3184 44.8545 34.3637 45.9191 35.7108C48.3338 38.766 50.5908 41.9553 52.8424 45.1418C53.4111 45.9466 54.0477 46.1967 54.911 46.0286C55.7503 45.8651 56.595 45.8373 57.443 45.8121C57.9007 45.7985 58.4071 45.7626 58.4471 46.3931C58.4856 46.9997 57.9808 47.0326 57.5405 47.1589C56.6889 47.4032 55.7599 47.2058 54.824 47.7233C55.7279 49.2619 56.9276 50.3492 58.6825 50.5582C60.4139 50.7643 61.928 50.1428 62.9378 48.6679C64.1452 46.9042 65.1807 45.0173 66.3605 43.2324C67.7001 41.2056 69.6714 40.6369 71.6448 41.639C72.8857 42.2691 73.5934 43.2888 73.8009 44.723C74.1876 47.3947 73.9669 50.0886 74.1433 52.7711C74.3864 56.4689 74.3834 60.1851 74.4398 63.8941C74.4783 66.4307 73.2098 68.2406 70.982 68.9783C68.8084 69.6981 66.7102 68.9364 65.2943 66.8688C61.2213 60.9214 57.1465 54.9752 53.1126 49C52.5671 48.1919 52.0462 47.8488 51.0444 47.9871C46.7407 48.5814 42.4259 49.093 38.112 49.6064C37.6003 49.6673 37.323 49.885 37.1197 50.3459C36.6788 51.3457 36.2062 52.331 35.7348 53.3163C35.5305 53.7433 35.2573 54.1634 34.7187 53.8947C34.2345 53.653 34.3867 53.1711 34.5269 52.7892C34.8632 51.8731 35.244 50.9743 35.6161 50.0457C32.141 50.0285 30.0295 52.0997 30.1798 55.2976C30.2204 56.1617 30.5892 56.9012 30.9611 57.6392C31.8251 59.3539 32.7064 61.0594 33.6155 62.8536ZM42.1412 39.2662C40.9544 41.9174 39.7677 44.5685 38.4624 47.4843C42.8424 47.088 46.8927 46.7215 51.2266 46.3294C48.6759 42.5851 46.3395 39.1553 43.8585 35.5132C43.2093 36.935 42.712 38.0241 42.1412 39.2662Z" fill="black"/>
</g>
</svg>
