<svg width="35" height="34" viewBox="0 0 35 34" fill="none" xmlns="http://www.w3.org/2000/svg">
<g id="battery-three-quarters-solid 1">
<path id="Vector" d="M10.9375 6.61111C10.9375 6.09167 11.4297 5.66667 12.0313 5.66667L22.9688 5.66667C23.5703 5.66667 24.0625 6.09167 24.0625 6.61111L24.0625 29.2778C24.0625 29.7972 23.5703 30.2222 22.9688 30.2222L12.0313 30.2222C11.4297 30.2222 10.9375 29.7972 10.9375 29.2778L10.9375 6.61111ZM6.5625 29.2778C6.5625 31.8868 9.00977 34 12.0313 34H22.9688C25.9902 34 28.4375 31.8868 28.4375 29.2778L28.4375 6.61111C28.4375 4.00208 25.9902 1.88889 22.9688 1.88889H21.875C21.875 0.844095 20.8975 -1.78814e-06 19.6875 -1.78814e-06H15.3125C14.1025 -1.78814e-06 13.125 0.844095 13.125 1.88889H12.0313C9.00977 1.88889 6.5625 4.00208 6.5625 6.61111L6.5625 29.2778ZM13.125 13.2222L13.125 28.3333L21.875 28.3333L21.875 13.2222L13.125 13.2222Z" fill="black"/>
</g>
</svg>
