<svg width="59" height="76" viewBox="0 0 59 76" fill="none" xmlns="http://www.w3.org/2000/svg">
<g id="droplet-solid 1" clip-path="url(#clip0_11_200)">
<path id="Vector" d="M29.5 76C13.2135 76 0 63.2344 0 47.5C0 33.9625 20.0047 8.56484 25.5974 1.73672C26.5193 0.623437 27.8867 0 29.3617 0H29.6383C31.1133 0 32.4807 0.623437 33.4026 1.73672C38.9953 8.56484 59 33.9625 59 47.5C59 63.2344 45.7865 76 29.5 76ZM14.75 49.875C14.75 48.5687 13.6437 47.5 12.2917 47.5C10.9396 47.5 9.83333 48.5687 9.83333 49.875C9.83333 59.0633 17.531 66.5 27.0417 66.5C28.3937 66.5 29.5 65.4313 29.5 64.125C29.5 62.8187 28.3937 61.75 27.0417 61.75C20.2505 61.75 14.75 56.4359 14.75 49.875Z" fill="white"/>
</g>
<defs>
<clipPath id="clip0_11_200">
<rect width="59" height="76" fill="white"/>
</clipPath>
</defs>
</svg>
