<svg width="59" height="76" viewBox="0 0 59 76" fill="none" xmlns="http://www.w3.org/2000/svg">
<g id="lightbulb-solid 1">
<path id="Vector" d="M41.7916 57C43.2666 52.2648 46.3242 48.2273 49.351 44.2047C50.15 43.1508 50.9489 42.0969 51.7172 41.0281C54.7594 36.7977 56.5416 31.6766 56.5416 26.1398C56.5416 11.6969 44.4344 0 29.5 0C14.5656 0 2.45831 11.6969 2.45831 26.125C2.45831 31.6617 4.24061 36.7977 7.28279 41.0133C8.05102 42.082 8.84998 43.1359 9.64894 44.1898C12.6911 48.2125 15.7487 52.2648 17.2083 56.9852H41.7916V57ZM29.5 76C36.2911 76 41.7916 70.6859 41.7916 64.125V61.75H17.2083V64.125C17.2083 70.6859 22.7088 76 29.5 76ZM17.2083 26.125C17.2083 27.4312 16.1021 28.5 14.75 28.5C13.3979 28.5 12.2916 27.4312 12.2916 26.125C12.2916 16.9367 19.9893 9.5 29.5 9.5C30.8521 9.5 31.9583 10.5688 31.9583 11.875C31.9583 13.1812 30.8521 14.25 29.5 14.25C22.7088 14.25 17.2083 19.5641 17.2083 26.125Z" fill="black"/>
</g>
</svg>
