<svg width="37" height="33" viewBox="0 0 37 33" fill="none" xmlns="http://www.w3.org/2000/svg">
<g id="rupee-coin-solid-icon 1" clip-path="url(#clip0_25_65)">
<path id="Vector" fill-rule="evenodd" clip-rule="evenodd" d="M18.5 3.83818C26.3401 3.83818 32.6966 9.50748 32.6966 16.5C32.6966 23.4925 26.3401 29.1618 18.5 29.1618C10.6599 29.1618 4.30342 23.4925 4.30342 16.5C4.30342 9.50748 10.6599 3.83818 18.5 3.83818ZM18.5 0C23.6077 0 28.2335 1.84723 31.5808 4.8327C34.9289 7.81881 37 11.9438 37 16.5C37 21.0562 34.9289 25.1812 31.5808 28.1667C28.2335 31.1528 23.6085 33 18.5 33C13.3915 33 8.76654 31.1528 5.41848 28.1667C2.07113 25.1812 0 21.0555 0 16.5C0 11.9438 2.07113 7.81881 5.41848 4.8327C8.76654 1.84723 13.3915 0 18.5 0ZM30.2988 5.97609C27.2796 3.28324 23.1077 1.61713 18.5 1.61713C13.8916 1.61713 9.71973 3.28324 6.70047 5.97609C3.68121 8.66895 1.81314 12.3898 1.81314 16.5C1.81314 20.6095 3.68121 24.3304 6.70047 27.0233C9.71973 29.7168 13.8916 31.3822 18.5 31.3822C23.1084 31.3822 27.2803 29.7168 30.2988 27.0233C33.3188 24.3311 35.1861 20.6102 35.1861 16.5C35.1861 12.3898 33.3188 8.66895 30.2988 5.97609ZM13.0866 15.209L14.0044 13.365H17.4659C17.2476 12.7102 16.3898 12.3421 15.6708 12.3421H13.0866L14.0044 10.4981H23.9134L22.9956 12.3421H20.6022C20.9195 12.5593 21.2598 13.0073 21.3198 13.365H23.9134L22.9956 15.209H21.1189C20.5133 16.5844 18.6655 17.5184 17.0901 17.7207L22.2968 22.5019H18.1806L13.5375 17.9586V16.2654H15.5928C15.79 16.2654 15.9844 16.237 16.1752 16.1784C16.676 16.0276 17.2173 15.675 17.3849 15.209H13.0866Z" fill="black"/>
</g>
<defs>
<clipPath id="clip0_25_65">
<rect width="37" height="33" fill="white"/>
</clipPath>
</defs>
</svg>
