<svg width="30" height="33" viewBox="0 0 30 33" fill="none" xmlns="http://www.w3.org/2000/svg">
<g id="magnifying-glass-solid 1" clip-path="url(#clip0_25_68)">
<path id="Vector" d="M24.375 13.4063C24.375 16.3647 23.502 19.0975 22.0312 21.3147L29.4492 29.4809C30.1816 30.2865 30.1816 31.5949 29.4492 32.4006C28.7168 33.2063 27.5273 33.2063 26.7949 32.4006L19.377 24.2344C17.3613 25.8586 14.877 26.8125 12.1875 26.8125C5.45508 26.8125 0 20.8119 0 13.4063C0 6.00059 5.45508 0 12.1875 0C18.9199 0 24.375 6.00059 24.375 13.4063ZM12.1875 22.6875C13.2955 22.6875 14.3927 22.4474 15.4164 21.981C16.4401 21.5146 17.3702 20.8309 18.1537 19.9691C18.9372 19.1072 19.5587 18.0841 19.9827 16.958C20.4068 15.832 20.625 14.6251 20.625 13.4063C20.625 12.1874 20.4068 10.9805 19.9827 9.85447C19.5587 8.72842 18.9372 7.70526 18.1537 6.84342C17.3702 5.98157 16.4401 5.29792 15.4164 4.83149C14.3927 4.36507 13.2955 4.125 12.1875 4.125C11.0795 4.125 9.98229 4.36507 8.95861 4.83149C7.93492 5.29792 7.00478 5.98157 6.22129 6.84342C5.43779 7.70526 4.81629 8.72842 4.39227 9.85447C3.96824 10.9805 3.75 12.1874 3.75 13.4063C3.75 14.6251 3.96824 15.832 4.39227 16.958C4.81629 18.0841 5.43779 19.1072 6.22129 19.9691C7.00478 20.8309 7.93492 21.5146 8.95861 21.981C9.98229 22.4474 11.0795 22.6875 12.1875 22.6875Z" fill="black"/>
</g>
<defs>
<clipPath id="clip0_25_68">
<rect width="30" height="33" fill="white"/>
</clipPath>
</defs>
</svg>
